<svg width="84" height="323" viewBox="0 0 84 323" fill="none" xmlns="http://www.w3.org/2000/svg">
<g clip-path="url(#clip0_788_650)">
<path d="M19 12V323" stroke="white" stroke-width="4"/>
<path d="M40 12H0" stroke="white" stroke-width="4"/>
<path d="M40 17H20" stroke="white"/>
<path d="M40 21H20" stroke="white"/>
<path d="M40 25H20" stroke="white"/>
<path d="M40 29H20" stroke="white"/>
<path d="M40 33H20" stroke="white"/>
<path d="M40 37H20" stroke="white"/>
<path d="M40 41H20" stroke="white"/>
<path d="M40 45H20" stroke="white"/>
<path d="M40 49H20" stroke="white"/>
<path d="M40 54H0" stroke="white" stroke-width="4"/>
<path d="M40 59H20" stroke="white"/>
<path d="M40 63H20" stroke="white"/>
<path d="M40 67H20" stroke="white"/>
<path d="M40 71H20" stroke="white"/>
<path d="M40 75H20" stroke="white"/>
<path d="M40 79H20" stroke="white"/>
<path d="M40 83H20" stroke="white"/>
<path d="M40 87H20" stroke="white"/>
<path d="M40 91H20" stroke="white"/>
<path d="M40 96H0" stroke="white" stroke-width="4"/>
<path d="M40 101H20" stroke="white"/>
<path d="M40 105H20" stroke="white"/>
<path d="M40 109H20" stroke="white"/>
<path d="M40 113H20" stroke="white"/>
<path d="M40 117H20" stroke="white"/>
<path d="M40 121H20" stroke="white"/>
<path d="M40 125H20" stroke="white"/>
<path d="M40 129H20" stroke="white"/>
<path d="M40 133H20" stroke="white"/>
<path d="M40 138H0" stroke="white" stroke-width="4"/>
<path d="M40 143H20" stroke="white"/>
<path d="M40 147H20" stroke="white"/>
<path d="M40 151H20" stroke="white"/>
<path d="M40 155H20" stroke="white"/>
<path d="M40 159H20" stroke="white"/>
<path d="M40 163H20" stroke="white"/>
<path d="M40 167H20" stroke="white"/>
<path d="M40 171H20" stroke="white"/>
<path d="M40 175H20" stroke="white"/>
<path d="M40 180H0" stroke="white" stroke-width="4"/>
<path d="M40 185H20" stroke="white"/>
<path d="M40 189H20" stroke="white"/>
<path d="M40 193H20" stroke="white"/>
<path d="M40 197H20" stroke="white"/>
<path d="M40 201H20" stroke="white"/>
<path d="M40 205H20" stroke="white"/>
<path d="M40 209H20" stroke="white"/>
<path d="M40 213H20" stroke="white"/>
<path d="M40 217H20" stroke="white"/>
<path d="M40 222H0" stroke="white" stroke-width="4"/>
<path d="M40 227H20" stroke="white"/>
<path d="M40 231H20" stroke="white"/>
<path d="M40 235H20" stroke="white"/>
<path d="M40 239H20" stroke="white"/>
<path d="M40 243H20" stroke="white"/>
<path d="M40 247H20" stroke="white"/>
<path d="M40 251H20" stroke="white"/>
<path d="M40 255H20" stroke="white"/>
<path d="M40 259H20" stroke="white"/>
<path d="M40 264H0" stroke="white" stroke-width="4"/>
<path d="M40 269H20" stroke="white"/>
<path d="M40 273H20" stroke="white"/>
<path d="M40 277H20" stroke="white"/>
<path d="M40 281H20" stroke="white"/>
<path d="M40 285H20" stroke="white"/>
<path d="M40 289H20" stroke="white"/>
<path d="M40 293H20" stroke="white"/>
<path d="M40 297H20" stroke="white"/>
<path d="M40 301H20" stroke="white"/>
<path d="M40 306H0" stroke="white" stroke-width="4"/>
<path d="M48 221.045V218.95L54.1719 209.199H55.9191V212.182H54.8537L50.6989 218.765V218.879H59.314V221.045H48ZM54.939 223.744V220.406L54.9674 219.468V209.199H57.4532V223.744H54.939ZM66.9595 224.021C65.79 224.021 64.7863 223.725 63.9482 223.133C63.1148 222.537 62.4733 221.677 62.0235 220.555C61.5784 219.428 61.3559 218.072 61.3559 216.485C61.3606 214.899 61.5855 213.55 62.0306 212.437C62.4804 211.32 63.122 210.467 63.9553 209.88C64.7934 209.293 65.7948 209 66.9595 209C68.1243 209 69.1257 209.293 69.9638 209.88C70.8019 210.467 71.4434 211.32 71.8885 212.437C72.3383 213.555 72.5632 214.904 72.5632 216.485C72.5632 218.076 72.3383 219.435 71.8885 220.562C71.4434 221.684 70.8019 222.541 69.9638 223.133C69.1305 223.725 68.1291 224.021 66.9595 224.021ZM66.9595 221.798C67.8686 221.798 68.586 221.351 69.1115 220.456C69.6418 219.556 69.907 218.233 69.907 216.485C69.907 215.33 69.7863 214.36 69.5448 213.574C69.3033 212.788 68.9624 212.196 68.522 211.798C68.0817 211.396 67.5609 211.194 66.9595 211.194C66.0552 211.194 65.3402 211.644 64.8147 212.544C64.2891 213.439 64.0239 214.753 64.0192 216.485C64.0145 217.646 64.1305 218.621 64.3672 219.412C64.6087 220.202 64.9496 220.799 65.3899 221.201C65.8303 221.599 66.3535 221.798 66.9595 221.798Z" fill="white"/>
<path d="M54.5541 153.943C53.8581 153.938 53.1786 153.817 52.5158 153.581C51.8529 153.339 51.2563 152.949 50.726 152.409C50.1957 151.864 49.7743 151.142 49.4618 150.243C49.1493 149.338 48.9954 148.219 49.0001 146.883C49.0001 145.638 49.1327 144.528 49.3979 143.552C49.663 142.577 50.0442 141.753 50.5413 141.081C51.0385 140.404 51.6375 139.888 52.3382 139.533C53.0437 139.177 53.8321 139 54.7033 139C55.6171 139 56.4268 139.18 57.1322 139.54C57.8425 139.9 58.4154 140.392 58.851 141.017C59.2866 141.637 59.5565 142.338 59.6607 143.119H57.0683C56.9357 142.561 56.6635 142.116 56.2516 141.784C55.8444 141.448 55.3283 141.28 54.7033 141.28C53.6947 141.28 52.9182 141.718 52.3737 142.594C51.8339 143.47 51.5617 144.672 51.557 146.202H51.6564C51.8884 145.785 52.1891 145.428 52.5584 145.129C52.9277 144.831 53.3444 144.601 53.8084 144.44C54.2771 144.275 54.7719 144.192 55.2928 144.192C56.145 144.192 56.9097 144.395 57.5868 144.802C58.2686 145.21 58.8084 145.771 59.2061 146.486C59.6038 147.196 59.8003 148.01 59.7956 148.929C59.8003 149.885 59.5825 150.744 59.1422 151.507C58.7018 152.264 58.0887 152.861 57.3027 153.297C56.5167 153.732 55.6005 153.948 54.5541 153.943ZM54.5399 151.812C55.056 151.812 55.5177 151.687 55.9249 151.436C56.3321 151.185 56.654 150.846 56.8908 150.42C57.1275 149.994 57.2435 149.516 57.2388 148.986C57.2435 148.465 57.1299 147.994 56.8979 147.572C56.6706 147.151 56.3557 146.817 55.9533 146.571C55.5508 146.325 55.0915 146.202 54.5754 146.202C54.1919 146.202 53.8344 146.275 53.503 146.422C53.1715 146.569 52.8827 146.772 52.6365 147.033C52.3903 147.288 52.1962 147.587 52.0541 147.927C51.9168 148.264 51.8458 148.624 51.841 149.007C51.8458 149.514 51.9642 149.98 52.1962 150.406C52.4282 150.832 52.7478 151.173 53.155 151.429C53.5622 151.684 54.0238 151.812 54.5399 151.812ZM67.5726 154.021C66.4031 154.021 65.3993 153.725 64.5612 153.133C63.7279 152.537 63.0863 151.677 62.6365 150.555C62.1914 149.428 61.9689 148.072 61.9689 146.486C61.9736 144.9 62.1985 143.55 62.6436 142.438C63.0934 141.32 63.735 140.468 64.5683 139.881C65.4064 139.293 66.4078 139 67.5726 139C68.7374 139 69.7388 139.293 70.5768 139.881C71.4149 140.468 72.0565 141.32 72.5016 142.438C72.9514 143.555 73.1763 144.904 73.1763 146.486C73.1763 148.077 72.9514 149.436 72.5016 150.562C72.0565 151.684 71.4149 152.541 70.5768 153.133C69.7435 153.725 68.7421 154.021 67.5726 154.021ZM67.5726 151.798C68.4817 151.798 69.199 151.351 69.7246 150.456C70.2549 149.556 70.52 148.233 70.52 146.486C70.52 145.331 70.3993 144.36 70.1578 143.574C69.9163 142.788 69.5754 142.196 69.1351 141.798C68.6947 141.396 68.1739 141.195 67.5726 141.195C66.6682 141.195 65.9533 141.644 65.4277 142.544C64.9021 143.439 64.637 144.753 64.6322 146.486C64.6275 147.646 64.7435 148.621 64.9803 149.412C65.2217 150.203 65.5626 150.799 66.003 151.201C66.4433 151.599 66.9665 151.798 67.5726 151.798Z" fill="white"/>
<path d="M54.4121 81.9432C53.3562 81.9432 52.4187 81.7656 51.5996 81.4105C50.7852 81.0554 50.146 80.5701 49.682 79.9545C49.2227 79.3343 48.9954 78.6311 49.0001 77.8452C48.9954 77.2344 49.128 76.6733 49.3979 76.1619C49.6678 75.6505 50.0323 75.2244 50.4916 74.8835C50.9556 74.5379 51.4717 74.3177 52.0399 74.223V74.1236C51.2918 73.9578 50.6857 73.5767 50.2217 72.9801C49.7624 72.3788 49.5352 71.6851 49.5399 70.8991C49.5352 70.151 49.7435 69.4834 50.1649 68.8963C50.5863 68.3092 51.164 67.8475 51.8979 67.5113C52.6318 67.1704 53.4698 67 54.4121 67C55.3448 67 56.1758 67.1704 56.905 67.5113C57.6389 67.8475 58.2165 68.3092 58.6379 68.8963C59.0641 69.4834 59.2771 70.151 59.2771 70.8991C59.2771 71.6851 59.0428 72.3788 58.574 72.9801C58.11 73.5767 57.511 73.9578 56.7771 74.1236V74.223C57.3453 74.3177 57.8567 74.5379 58.3112 74.8835C58.7705 75.2244 59.1351 75.6505 59.405 76.1619C59.6796 76.6733 59.8169 77.2344 59.8169 77.8452C59.8169 78.6311 59.5849 79.3343 59.1209 79.9545C58.6569 80.5701 58.0177 81.0554 57.2033 81.4105C56.3936 81.7656 55.4632 81.9432 54.4121 81.9432ZM54.4121 79.9119C54.9566 79.9119 55.4301 79.8196 55.8325 79.6349C56.235 79.4455 56.5475 79.1804 56.77 78.8395C56.9926 78.4986 57.1062 78.1056 57.1109 77.6605C57.1062 77.1965 56.9855 76.7869 56.7487 76.4318C56.5167 76.072 56.1971 75.7902 55.7899 75.5866C55.3874 75.383 54.9282 75.2812 54.4121 75.2812C53.8912 75.2812 53.4272 75.383 53.02 75.5866C52.6128 75.7902 52.2909 76.072 52.0541 76.4318C51.8221 76.7869 51.7085 77.1965 51.7132 77.6605C51.7085 78.1056 51.8174 78.4986 52.0399 78.8395C52.2624 79.1756 52.5749 79.4384 52.9774 79.6278C53.3846 79.8172 53.8628 79.9119 54.4121 79.9119ZM54.4121 73.2855C54.8571 73.2855 55.2501 73.1955 55.591 73.0156C55.9367 72.8357 56.2089 72.5847 56.4078 72.2628C56.6067 71.9408 56.7085 71.5691 56.7132 71.1477C56.7085 70.731 56.609 70.3665 56.4149 70.054C56.2208 69.7367 55.9509 69.4929 55.6052 69.3224C55.2596 69.1472 54.8619 69.0596 54.4121 69.0596C53.9528 69.0596 53.548 69.1472 53.1976 69.3224C52.8519 69.4929 52.582 69.7367 52.3879 70.054C52.1985 70.3665 52.1062 70.731 52.1109 71.1477C52.1062 71.5691 52.2009 71.9408 52.395 72.2628C52.5939 72.58 52.8661 72.8309 53.2118 73.0156C53.5622 73.1955 53.9623 73.2855 54.4121 73.2855ZM67.5282 82.0213C66.3587 82.0213 65.3549 81.7254 64.5168 81.1335C63.6835 80.5369 63.0419 79.6775 62.5921 78.5554C62.147 77.4285 61.9245 76.072 61.9245 74.4858C61.9292 72.8996 62.1541 71.5502 62.5992 70.4375C63.049 69.3201 63.6906 68.4678 64.5239 67.8807C65.362 67.2935 66.3634 67 67.5282 67C68.693 67 69.6944 67.2935 70.5325 67.8807C71.3705 68.4678 72.0121 69.3201 72.4572 70.4375C72.907 71.5549 73.1319 72.9043 73.1319 74.4858C73.1319 76.0767 72.907 77.4356 72.4572 78.5625C72.0121 79.6846 71.3705 80.5416 70.5325 81.1335C69.6991 81.7254 68.6977 82.0213 67.5282 82.0213ZM67.5282 79.7983C68.4373 79.7983 69.1546 79.3508 69.6802 78.4559C70.2105 77.5563 70.4756 76.2329 70.4756 74.4858C70.4756 73.3305 70.3549 72.3598 70.1134 71.5738C69.8719 70.7879 69.531 70.196 69.0907 69.7983C68.6503 69.3958 68.1295 69.1946 67.5282 69.1946C66.6238 69.1946 65.9089 69.6444 65.3833 70.544C64.8577 71.4389 64.5926 72.7528 64.5878 74.4858C64.5831 75.6458 64.6991 76.6212 64.9359 77.4119C65.1773 78.2026 65.5182 78.7992 65.9586 79.2017C66.3989 79.5994 66.9221 79.7983 67.5282 79.7983Z" fill="white"/>
<path d="M54.2091 2.45473V17.0002H51.5742V5.01865H51.4889L48.0869 7.19194V4.77717L51.702 2.45473H54.2091ZM63.2787 17.2772C62.1092 17.2772 61.1054 16.9813 60.2673 16.3894C59.434 15.7928 58.7924 14.9334 58.3426 13.8113C57.8976 12.6844 57.675 11.3279 57.675 9.74168C57.6798 8.15548 57.9047 6.80605 58.3497 5.69336C58.7995 4.57594 59.4411 3.72366 60.2744 3.13654C61.1125 2.54942 62.1139 2.25586 63.2787 2.25586C64.4435 2.25586 65.4449 2.54942 66.283 3.13654C67.121 3.72366 67.7626 4.57594 68.2077 5.69336C68.6575 6.81079 68.8824 8.16018 68.8824 9.74168C68.8824 11.3326 68.6575 12.6915 68.2077 13.8184C67.7626 14.9405 67.121 15.7975 66.283 16.3894C65.4496 16.9813 64.4482 17.2772 63.2787 17.2772ZM63.2787 15.0542C64.1878 15.0542 64.9051 14.6067 65.4307 13.7118C65.961 12.8122 66.2262 11.4888 66.2262 9.74168C66.2262 8.58638 66.1054 7.61571 65.8639 6.82973C65.6225 6.04374 65.2816 5.45188 64.8412 5.05416C64.4009 4.6517 63.88 4.45046 63.2787 4.45046C62.3744 4.45046 61.6594 4.90027 61.1338 5.7999C60.6083 6.69478 60.3431 8.00868 60.3384 9.74168C60.3336 10.9017 60.4496 11.8771 60.6864 12.6678C60.9279 13.4585 61.2688 14.0551 61.7091 14.4576C62.1494 14.8553 62.6726 15.0542 63.2787 15.0542ZM76.6186 17.2772C75.449 17.2772 74.4453 16.9813 73.6072 16.3894C72.7739 15.7928 72.1323 14.9334 71.6825 13.8113C71.2374 12.6844 71.0149 11.3279 71.0149 9.74168C71.0196 8.15548 71.2445 6.80605 71.6896 5.69336C72.1394 4.57594 72.781 3.72366 73.6143 3.13654C74.4524 2.54942 75.4538 2.25586 76.6186 2.25586C77.7833 2.25586 78.7847 2.54942 79.6228 3.13654C80.4609 3.72366 81.1025 4.57594 81.5475 5.69336C81.9973 6.81079 82.2222 8.16018 82.2222 9.74168C82.2222 11.3326 81.9973 12.6915 81.5475 13.8184C81.1025 14.9405 80.4609 15.7975 79.6228 16.3894C78.7895 16.9813 77.7881 17.2772 76.6186 17.2772ZM76.6186 15.0542C77.5276 15.0542 78.245 14.6067 78.7705 13.7118C79.3008 12.8122 79.566 11.4888 79.566 9.74168C79.566 8.58638 79.4453 7.61571 79.2038 6.82973C78.9623 6.04374 78.6214 5.45188 78.1811 5.05416C77.7407 4.6517 77.2199 4.45046 76.6186 4.45046C75.7142 4.45046 74.9992 4.90027 74.4737 5.7999C73.9481 6.69478 73.6829 8.00868 73.6782 9.74168C73.6735 10.9017 73.7895 11.8771 74.0262 12.6678C74.2677 13.4585 74.6086 14.0551 75.049 14.4576C75.4893 14.8553 76.0125 15.0542 76.6186 15.0542Z" fill="white"/>
<path d="M49.0852 274.744V272.841L54.1349 267.89C54.6179 267.403 55.0203 266.969 55.3423 266.591C55.6643 266.212 55.9058 265.845 56.0667 265.49C56.2277 265.135 56.3082 264.756 56.3082 264.353C56.3082 263.894 56.2041 263.501 55.9957 263.174C55.7874 262.843 55.5009 262.587 55.1364 262.407C54.7718 262.227 54.3575 262.137 53.8935 262.137C53.4152 262.137 52.9962 262.237 52.6364 262.436C52.2765 262.63 51.9971 262.907 51.7983 263.267C51.6042 263.627 51.5071 264.055 51.5071 264.552H49C49 263.629 49.2107 262.826 49.6321 262.145C50.0535 261.463 50.6335 260.935 51.3721 260.561C52.1155 260.187 52.9678 260 53.929 260C54.9043 260 55.7614 260.182 56.5 260.547C57.2386 260.911 57.8115 261.411 58.2187 262.045C58.6307 262.68 58.8366 263.404 58.8366 264.218C58.8366 264.763 58.7325 265.298 58.5241 265.824C58.3158 266.349 57.9489 266.931 57.4233 267.571C56.9024 268.21 56.1709 268.984 55.2287 269.893L52.7216 272.443V272.542H59.0568V274.744H49.0852ZM66.5639 274.943C65.6169 274.943 64.7694 274.765 64.0213 274.41C63.2732 274.05 62.679 273.558 62.2386 272.933C61.803 272.308 61.571 271.593 61.5426 270.788H64.0994C64.1468 271.385 64.4048 271.872 64.8736 272.251C65.3423 272.625 65.9058 272.812 66.5639 272.812C67.08 272.812 67.5393 272.694 67.9417 272.457C68.3442 272.22 68.6614 271.891 68.8935 271.47C69.1255 271.048 69.2391 270.568 69.2344 270.028C69.2391 269.479 69.1231 268.991 68.8864 268.565C68.6496 268.139 68.3253 267.805 67.9133 267.564C67.5014 267.317 67.0279 267.194 66.4929 267.194C66.0573 267.19 65.6288 267.27 65.2074 267.436C64.786 267.601 64.4522 267.819 64.206 268.089L61.8267 267.699L62.5866 260.199H71.0241V262.4H64.767L64.348 266.257H64.4332C64.7031 265.94 65.0843 265.677 65.5767 265.468C66.0691 265.255 66.6089 265.149 67.196 265.149C68.0767 265.149 68.8627 265.357 69.554 265.774C70.2453 266.186 70.7898 266.754 71.1875 267.478C71.5852 268.203 71.7841 269.031 71.7841 269.964C71.7841 270.925 71.5615 271.782 71.1165 272.535C70.6761 273.283 70.063 273.873 69.277 274.304C68.4957 274.73 67.5914 274.943 66.5639 274.943Z" fill="white"/>
<path d="M55.1222 308.199V322.744H52.4873V310.762H52.402L49 312.936V310.521L52.6151 308.199H55.1222ZM64.1918 323.021C63.0223 323.021 62.0185 322.725 61.1804 322.133C60.3471 321.537 59.7055 320.677 59.2557 319.555C58.8107 318.428 58.5881 317.072 58.5881 315.485C58.5929 313.899 58.8178 312.55 59.2628 311.437C59.7126 310.32 60.3542 309.467 61.1875 308.88C62.0256 308.293 63.027 308 64.1918 308C65.3566 308 66.358 308.293 67.1961 308.88C68.0341 309.467 68.6757 310.32 69.1208 311.437C69.5706 312.555 69.7955 313.904 69.7955 315.485C69.7955 317.076 69.5706 318.435 69.1208 319.562C68.6757 320.684 68.0341 321.541 67.1961 322.133C66.3627 322.725 65.3613 323.021 64.1918 323.021ZM64.1918 320.798C65.1009 320.798 65.8182 320.351 66.3438 319.456C66.8741 318.556 67.1393 317.233 67.1393 315.485C67.1393 314.33 67.0185 313.36 66.777 312.574C66.5356 311.788 66.1947 311.196 65.7543 310.798C65.314 310.396 64.7931 310.194 64.1918 310.194C63.2875 310.194 62.5725 310.644 62.0469 311.544C61.5214 312.439 61.2562 313.753 61.2515 315.485C61.2467 316.646 61.3627 317.621 61.5995 318.412C61.841 319.202 62.1819 319.799 62.6222 320.201C63.0625 320.599 63.5857 320.798 64.1918 320.798Z" fill="white"/>
</g>
<defs>
<clipPath id="clip0_788_650">
<rect width="84" height="323" fill="white"/>
</clipPath>
</defs>
</svg>
