<svg width="690" height="506" viewBox="0 0 690 506" fill="none" xmlns="http://www.w3.org/2000/svg">
<line x1="0.918213" y1="500.5" x2="689.082" y2="500.5" stroke="white" stroke-width="4"/>
<path d="M523.676 6.40107C521.522 1.31575 515.653 -1.06022 510.567 1.09418L427.697 36.2021C422.612 38.3565 420.236 44.2255 422.39 49.3108C424.545 54.3961 430.414 56.7721 435.499 54.6177L509.161 23.4106L540.368 97.0728C542.523 102.158 548.392 104.534 553.477 102.38C558.562 100.225 560.938 94.3563 558.784 89.271L523.676 6.40107ZM315.533 501.697L324.802 505.449L523.737 14.0545L514.468 10.302L505.199 6.54941L306.263 497.944L315.533 501.697Z" fill="#3182CE"/>
</svg>
