<svg width="690" height="714" viewBox="0 0 690 714" fill="none" xmlns="http://www.w3.org/2000/svg">
<path d="M620.355 6.39279C618.201 1.30757 612.332 -1.06816 607.247 1.08646L524.378 36.198C519.293 38.3526 516.917 44.2217 519.072 49.3069C521.226 54.3921 527.095 56.7678 532.181 54.6132L605.841 23.403L637.052 97.0638C639.206 102.149 645.075 104.525 650.161 102.37C655.246 100.216 657.622 94.3465 655.467 89.2612L620.355 6.39279ZM328.184 709.335L337.453 713.087L620.417 14.0462L611.148 10.2941L601.878 6.54193L318.915 705.583L328.184 709.335Z" fill="#3182CE"/>
<line x1="331.235" y1="696.814" x2="214.235" y2="483.814" stroke="#3182CE" stroke-width="20"/>
<circle cx="332.5" cy="696.5" r="16.5" fill="#3182CE"/>
<line x1="0.917969" y1="484.5" x2="689.081" y2="484.5" stroke="white" stroke-width="4" stroke-dasharray="8 8"/>
</svg>
