<svg width="346" height="313" viewBox="0 0 346 313" fill="none" xmlns="http://www.w3.org/2000/svg">
<g clip-path="url(#clip0_957_216)">
<path fill-rule="evenodd" clip-rule="evenodd" d="M498.845 236.663C499.449 236.429 500.096 236.288 500.78 236.288C503.773 236.288 506.198 238.726 506.198 241.732C506.198 244.739 503.773 247.177 500.78 247.177C500.096 247.177 499.449 247.037 498.845 246.803L466.224 303.6C467.275 304.592 467.937 305.99 467.937 307.554C467.937 310.562 465.514 313 462.522 313C459.822 313 457.601 311.007 457.192 308.408H392.804C392.394 311.007 390.174 313 387.471 313C384.481 313 382.056 310.562 382.056 307.554C382.056 305.882 382.82 304.406 383.999 303.409L351.488 246.803C350.883 247.037 350.237 247.177 349.552 247.177C346.852 247.177 344.632 245.184 344.222 242.585H279.31C278.9 245.184 276.679 247.177 273.979 247.177C273.295 247.177 272.648 247.037 272.043 246.803L239.592 303.304C240.841 304.303 241.66 305.824 241.66 307.554C241.66 310.562 239.235 313 236.243 313C233.253 313 230.828 310.562 230.828 307.554C230.828 304.547 233.253 302.111 236.243 302.111C236.905 302.111 237.532 302.247 238.119 302.465L270.582 245.942C269.361 244.945 268.562 243.439 268.562 241.732C268.562 240.027 269.358 238.52 270.582 237.524L238.119 181.001C237.532 181.219 236.905 181.355 236.243 181.355C233.543 181.355 231.32 179.361 230.912 176.76H165.678C165.271 179.361 163.05 181.355 160.348 181.355C159.728 181.355 159.146 181.229 158.592 181.036L126.078 237.639C127.22 238.638 127.956 240.092 127.956 241.732C127.956 244.739 125.531 247.177 122.541 247.177C119.841 247.177 117.621 245.184 117.211 242.585H115.39V240.883H117.211C117.618 238.282 119.839 236.288 122.541 236.288C123.291 236.288 124.005 236.442 124.652 236.718L157.093 180.237C155.789 179.246 154.932 177.684 154.932 175.911C154.932 174.136 155.789 172.577 157.093 171.583L124.684 115.16C124.082 115.391 123.433 115.532 122.751 115.532C120.048 115.532 117.828 113.538 117.418 110.94H52.5084C52.0987 113.538 49.8782 115.532 47.1756 115.532C46.3588 115.532 45.5895 115.336 44.8951 115.012L44.8427 115.105L43.374 114.251L43.4864 114.056C42.4298 113.061 41.7604 111.658 41.7604 110.089C41.7604 108.459 42.4848 107.016 43.6113 106.019L11.0752 49.3727C10.5057 49.5785 9.89871 49.7116 9.25678 49.7116C6.55668 49.7116 4.33615 47.7181 3.92651 45.117H0V43.4148H3.92651C4.33615 40.8137 6.55668 38.8227 9.25678 38.8227C9.89871 38.8227 10.5057 38.9533 11.0752 39.1592L43.4714 -17.2435C42.1776 -18.2402 41.3283 -19.7918 41.3283 -21.5568C41.3283 -24.5621 43.7537 -27 46.746 -27C49.4461 -27 51.6666 -25.0065 52.0763 -22.4079H117.418C117.828 -25.0065 120.048 -27 122.751 -27C125.741 -27 128.166 -24.5621 128.166 -21.5568C128.166 -19.7818 127.312 -18.2226 126.006 -17.2284L158.414 39.1943C159.016 38.9633 159.663 38.8227 160.348 38.8227C163.05 38.8227 165.271 40.8137 165.678 43.4148H230.912C231.322 40.8137 233.543 38.8227 236.243 38.8227C236.927 38.8227 237.577 38.9633 238.179 39.1943L270.63 -17.3062C269.381 -18.303 268.562 -19.827 268.562 -21.5568C268.562 -24.5621 270.987 -27 273.979 -27C276.679 -27 278.9 -25.0065 279.31 -22.4079H344.222C344.632 -25.0065 346.852 -27 349.552 -27C352.544 -27 354.97 -24.5621 354.97 -21.5568C354.97 -19.8847 354.203 -18.4084 353.024 -17.4092L385.538 39.1943C386.14 38.9633 386.787 38.8227 387.471 38.8227C390.174 38.8227 392.394 40.8137 392.804 43.4148H397.817V45.117H392.804C392.394 47.7181 390.174 49.7116 387.471 49.7116C386.754 49.7116 386.07 49.5635 385.443 49.3074L385.413 49.3601L383.947 48.5065L383.999 48.4136C382.82 47.4143 382.056 45.938 382.056 44.2659C382.056 42.5586 382.853 41.0547 384.074 40.058L351.583 -16.5154C350.953 -16.2593 350.272 -16.1111 349.552 -16.1111C346.852 -16.1111 344.632 -18.1046 344.222 -20.7057H279.31C278.9 -18.1046 276.679 -16.1111 273.979 -16.1111C273.317 -16.1111 272.69 -16.2467 272.106 -16.4651L239.64 40.0555C240.864 41.0547 241.66 42.5586 241.66 44.2659C241.66 45.9732 240.864 47.4771 239.64 48.4763L272.106 104.997C272.693 104.781 273.317 104.643 273.979 104.643C276.679 104.643 278.9 106.636 279.31 109.238H344.222C344.632 106.636 346.852 104.643 349.552 104.643C352.544 104.643 354.97 107.081 354.97 110.089C354.97 113.096 352.544 115.532 349.552 115.532C346.852 115.532 344.632 113.538 344.222 110.94H279.31C278.9 113.538 276.679 115.532 273.979 115.532C273.317 115.532 272.69 115.396 272.106 115.178L239.64 171.701C240.864 172.7 241.66 174.204 241.66 175.911C241.66 177.616 240.864 179.123 239.64 180.119L272.106 236.642C272.69 236.424 273.317 236.288 273.979 236.288C276.679 236.288 278.9 238.282 279.31 240.883H344.222C344.632 238.282 346.852 236.288 349.552 236.288C350.237 236.288 350.886 236.429 351.488 236.663L384.634 178.952C383.092 177.993 382.056 176.29 382.056 174.335C382.056 171.327 384.481 168.889 387.471 168.889C390.463 168.889 392.889 171.327 392.889 174.335C392.889 177.34 390.463 179.778 387.471 179.778C387.069 179.778 386.682 179.728 386.305 179.645L353.024 237.586C354.203 238.583 354.97 240.062 354.97 241.732C354.97 243.439 354.173 244.945 352.949 245.942L385.443 302.513C386.07 302.257 386.752 302.111 387.471 302.111C390.174 302.111 392.394 304.105 392.804 306.703H457.192C457.599 304.105 459.819 302.111 462.522 302.111C463.346 302.111 464.118 302.309 464.817 302.641L497.383 245.942C496.162 244.943 495.365 243.439 495.365 241.732C495.365 240.027 496.162 238.523 497.383 237.524L464.817 180.825C464.118 181.156 463.346 181.355 462.522 181.355C459.53 181.355 457.104 178.917 457.104 175.911C457.104 172.904 459.53 170.466 462.522 170.466C465.514 170.466 467.937 172.904 467.937 175.911C467.937 177.473 467.275 178.874 466.224 179.866L498.845 236.663ZM124.507 104.962C123.952 104.771 123.368 104.643 122.751 104.643C120.048 104.643 117.828 106.636 117.418 109.237H52.5084C52.0988 106.636 49.8782 104.643 47.1756 104.643C46.4138 104.643 45.6919 104.804 45.035 105.09L12.5614 48.5516C13.8377 47.5574 14.6745 46.0158 14.6745 44.2659C14.6745 42.5159 13.8377 40.9769 12.5614 39.9801L44.9651 -16.4376C45.5246 -16.2392 46.1191 -16.1112 46.746 -16.1112C49.4461 -16.1112 51.6691 -18.1047 52.0763 -20.7057H117.418C117.828 -18.1047 120.048 -16.1112 122.751 -16.1112C123.368 -16.1112 123.952 -16.2367 124.507 -16.43L156.951 40.0555C155.729 41.0547 154.932 42.5586 154.932 44.2659C154.932 45.9731 155.729 47.4771 156.951 48.4763L124.507 104.962ZM238.116 170.82C237.532 170.601 236.905 170.466 236.243 170.466C233.543 170.466 231.322 172.459 230.912 175.058H165.678C165.271 172.459 163.05 170.466 160.348 170.466C159.731 170.466 159.146 170.591 158.592 170.785L126.145 114.299C127.369 113.3 128.166 111.796 128.166 110.089C128.166 108.381 127.369 106.877 126.145 105.878L158.592 49.3927C159.146 49.5835 159.731 49.7116 160.348 49.7116C163.05 49.7116 165.271 47.7181 165.678 45.117H230.912C231.322 47.7181 233.543 49.7116 236.243 49.7116C236.905 49.7116 237.532 49.5735 238.119 49.3551L270.582 105.878C269.361 106.877 268.562 108.381 268.562 110.089C268.562 111.796 269.358 113.3 270.582 114.297L238.116 170.82Z" fill="url(#paint0_radial_957_216)"/>
</g>
<defs>
<radialGradient id="paint0_radial_957_216" cx="0" cy="0" r="1" gradientUnits="userSpaceOnUse" gradientTransform="translate(294 109) rotate(109.733) scale(195.479 291.032)">
<stop stop-color="#7990FE"/>
<stop offset="1" stop-color="#171328"/>
</radialGradient>
<clipPath id="clip0_957_216">
<rect width="346" height="313" fill="white"/>
</clipPath>
</defs>
</svg>
